Coordinates
version=1
nRows=5
nColumns=107
inDegrees=yes

Units are S.I. units (second, meters, Newtons, ...)
If the header above contains a line with 'inDegrees', this indicates whether rotational values are in degrees (yes) or radians (no).

endheader
time	sternoclavicular_r2	sternoclavicular_r3	unrotscap_r3	unrotscap_r2	acromioclavicular_r2	acromioclavicular_r3	acromioclavicular_r1	unrothum_r1	unrothum_r3	unrothum_r2	elv_angle	shoulder_elv	shoulder1_r2	shoulder_rot	elbow_flexion	pro_sup	deviation	flexion	proximal_distal_r1	proximal_distal_r3	cmc_flexion	cmc_abduction	mp_flexion	ip_flexion	mcp2_flexion	mcp2_abduction	pm2_flexion	md2_flexion	mcp3_flexion	mcp3_abduction	pm3_flexion	md3_flexion	mcp4_flexion	mcp4_abduction	pm4_flexion	md4_flexion	mcp5_flexion	mcp5_abduction	pm5_flexion	md5_flexion	bicpt_tx	bicpt_ty	bicpt_tz	bicpt2_tx	bicpt2_ty	bicpt2_tz	ptpt_tx	ptpt_ty	ptpt_tz	FCUpt_tx	FCUpt_ty	FCUpt_tz	EDCpt_tx	EDCpt_ty	EDCpt_tz	APLpt_tx	APLpt_ty	APLpt_tz	FPLpt_tx	FPLpt_ty	FPLpt_tz	FPLpt2_tx	FPLpt2_ty	FPLpt2_tz	PEC1pt2_tx	PEC1pt2_ty	PEC1pt2_tz	PEC1pt3_tx	PEC1pt3_ty	PEC1pt3_tz	PEC2pt2_tx	PEC2pt2_ty	PEC2pt2_tz	PEC2pt3_tx	PEC2pt3_ty	PEC2pt3_tz	PEC3pt2_tx	PEC3pt2_ty	PEC3pt2_tz	PEC3pt3_tx	PEC3pt3_ty	PEC3pt3_tz	DELT2pt2a_tx	DELT2pt2a_ty	DELT2pt2a_tz	DELT2pt2_tx	DELT2pt2_ty	DELT2pt2_tz	LAT1pt2_tx	LAT1pt2_ty	LAT1pt2_tz	LAT1pt3_tx	LAT1pt3_ty	LAT1pt3_tz	LAT2pt2_tx	LAT2pt2_ty	LAT2pt2_tz	LAT2pt3_tx	LAT2pt3_ty	LAT2pt3_tz	LAT3pt2_tx	LAT3pt2_ty	LAT3pt2_tz	LAT3pt3_tx	LAT3pt3_ty	LAT3pt3_tz
      0.00000000	     -0.31555938	      0.13365606	     -0.13365606	      0.31555938	     -0.06389436	      0.51637171	      0.23210553	     -0.23210553	     -0.51637171	      0.06389436	    102.05231546	     74.71148883	     -1.78114891	    -35.99783516	     31.94785521	     82.45028975	      0.30360676	      0.58993407	      0.33658977	      0.29496704	     40.88383269	     -7.72343362	     12.39718853	     -9.36433187	    -39.31313310	     13.89838419	     10.94317268	      5.50514318	    -33.09352585	     -8.10703511	     23.84542282	     19.37217127	    -14.74753858	    -10.80404275	      9.29507957	     23.34641710	     35.20202762	    -14.36309920	    -18.82109871	      4.85293198	      0.00095674	     -0.03126171	     -0.00488981	      0.01459242	     -0.01887879	     -0.00167509	      0.00145785	     -0.06883928	     -0.00669181	      0.01233217	     -0.18235615	     -0.00000923	     -0.00989401	      0.00338516	     -0.00064665	     -0.00089504	     -0.00035801	     -0.00179007	     -0.00114565	     -0.00343694	     -0.00193328	     -0.00000927	     -0.00009349	     -0.00011219	      0.00244888	      0.00859183	      0.00597692	     -0.00801074	      0.01934199	     -0.01834584	      0.00244888	      0.00859183	      0.00597692	      0.00053958	      0.01793077	     -0.00942196	      0.00389245	      0.00477781	      0.01583040	      0.00000000	      0.00746295	      0.00000000	     -0.00701458	     -0.03241651	     -0.00615171	      0.02129627	     -0.00096656	     -0.01062490	     -0.00087163	      0.01461026	     -0.00597692	      0.00240737	      0.02108526	     -0.01743270	     -0.00585240	      0.01265946	     -0.00535433	     -0.01220289	      0.02673013	     -0.02992613	     -0.02291154	      0.01415369	     -0.00718061	     -0.01519135	      0.03088077	     -0.03739728
      0.03333333	     -0.31565329	      0.13369584	     -0.13369584	      0.31565329	     -0.06391337	      0.51652538	      0.23217460	     -0.23217460	     -0.51652538	      0.06391337	    102.03436268	     74.73372285	     -1.78083558	    -35.93679445	     31.86795571	     82.01861626	      0.29497739	      0.56563163	      0.32910638	      0.28281582	     41.16948432	     -7.32004065	     12.03736972	     -9.37365550	    -39.62058618	     13.90088982	     10.44978788	      7.92463514	    -32.99081665	     -7.89669868	     23.79357696	     18.60390508	    -14.70406141	    -10.87822769	      9.85564342	     21.52637716	     35.17550097	    -14.38002633	    -18.68446346	      4.83277917	      0.00095409	     -0.03125255	     -0.00488833	      0.01463332	     -0.01885709	     -0.00174673	      0.00148975	     -0.06881866	     -0.00665704	      0.01228308	     -0.18237031	     -0.00001989	     -0.00984221	      0.00336198	     -0.00063367	     -0.00084665	     -0.00033866	     -0.00169330	     -0.00108371	     -0.00325114	     -0.00182876	     -0.00000883	     -0.00008761	     -0.00010513	      0.00244961	      0.00859439	      0.00597870	     -0.00801312	      0.01934775	     -0.01835130	      0.00244961	      0.00859439	      0.00597870	      0.00053974	      0.01793611	     -0.00942476	      0.00389331	      0.00477923	      0.01583254	      0.00000000	      0.00746742	      0.00000000	     -0.00701667	     -0.03242616	     -0.00615542	      0.02127416	     -0.00096438	     -0.01059108	     -0.00087189	      0.01461461	     -0.00597870	      0.00240809	      0.02109154	     -0.01743788	     -0.00585415	      0.01266322	     -0.00535592	     -0.01220652	      0.02673809	     -0.02993503	     -0.02291836	      0.01415790	     -0.00718275	     -0.01519587	      0.03088996	     -0.03740841
      0.06666667	     -0.31559528	      0.13367127	     -0.13367127	      0.31559528	     -0.06390162	      0.51643045	      0.23213193	     -0.23213193	     -0.51643045	      0.06390162	    102.04181652	     74.71998804	     -1.78096567	    -35.93115820	     31.87328299	     82.01802857	      0.29496009	      0.56563740	      0.32909106	      0.28281870	     41.17071313	     -7.31913216	     12.03813384	     -9.37339273	    -39.62315218	     13.90070878	     10.44935546	      7.92409249	    -32.98926260	     -7.89549809	     23.79392529	     18.60411666	    -14.70319793	    -10.87815396	      9.85589058	     21.52647398	     35.17619498	    -14.38004597	    -18.68390249	      4.83284533	      0.00095427	     -0.03125317	     -0.00488843	      0.01463338	     -0.01885853	     -0.00174683	      0.00148979	     -0.06881863	     -0.00665699	      0.01228301	     -0.18237033	     -0.00001991	     -0.00984214	      0.00336194	     -0.00063366	     -0.00084666	     -0.00033867	     -0.00169333	     -0.00108373	     -0.00325119	     -0.00182880	     -0.00000882	     -0.00008759	     -0.00010510	      0.00244916	      0.00859281	      0.00597760	     -0.00801165	      0.01934419	     -0.01834792	      0.00244916	      0.00859281	      0.00597760	      0.00053964	      0.01793281	     -0.00942303	      0.00389278	      0.00477835	      0.01583122	      0.00000000	      0.00746466	      0.00000000	     -0.00701538	     -0.03242020	     -0.00615313	      0.02127202	     -0.00096418	     -0.01058803	     -0.00087173	      0.01461192	     -0.00597760	      0.00240765	      0.02108766	     -0.01743468	     -0.00585307	      0.01266090	     -0.00535494	     -0.01220428	      0.02673317	     -0.02992953	     -0.02291415	      0.01415530	     -0.00718143	     -0.01519308	      0.03088429	     -0.03740154
      0.10000000	     -0.31640695	      0.13401505	     -0.13401505	      0.31640695	     -0.06406597	      0.51775864	      0.23272895	     -0.23272895	     -0.51775864	      0.06406597	    101.72311907	     74.91215808	     -1.77540335	    -34.71645646	     31.86775429	     81.21306739	      0.30504473	      0.58045903	      0.33782502	      0.29022952	     41.46785630	     -6.96739125	     11.69117379	     -8.83262958	    -40.08395656	     13.88303572	     11.13965294	      5.65618943	    -32.65994117	     -7.42184035	     23.53124161	     19.55490906	    -13.89807647	    -10.79852338	      8.72027474	     22.92553351	     35.11576704	    -14.38030741	    -18.42472865	      4.85645656	      0.00095409	     -0.03125253	     -0.00488833	      0.01470851	     -0.01885703	     -0.00187973	      0.00154927	     -0.06878017	     -0.00659215	      0.01219163	     -0.18239659	     -0.00003942	     -0.00974555	      0.00331886	     -0.00060972	     -0.00087605	     -0.00035042	     -0.00175211	     -0.00112135	     -0.00336404	     -0.00189228	     -0.00000833	     -0.00008137	     -0.00009765	      0.00245546	      0.00861491	      0.00599298	     -0.00803225	      0.01939394	     -0.01839511	      0.00245546	      0.00861491	      0.00599298	      0.00054103	      0.01797893	     -0.00944726	      0.00390015	      0.00479064	      0.01584963	      0.00000000	      0.00750336	      0.00000000	     -0.00703343	     -0.03250358	     -0.00618527	      0.02082007	     -0.00092106	     -0.00992421	     -0.00087398	      0.01464950	     -0.00599298	      0.00241384	      0.02114189	     -0.01747952	     -0.00586812	      0.01269346	     -0.00536871	     -0.01223566	      0.02680193	     -0.03000651	     -0.02297308	      0.01419170	     -0.00719990	     -0.01523215	      0.03096372	     -0.03749773
      0.13333333	     -0.31632742	      0.13398137	     -0.13398137	      0.31632742	     -0.06404987	      0.51762851	      0.23267045	     -0.23267045	     -0.51762851	      0.06404987	    101.72967543	     74.89332933	     -1.77551778	    -34.71264197	     31.86674276	     81.21036396	      0.30499707	      0.58050154	      0.33778381	      0.29025077	     41.46970876	     -6.96715637	     11.69243578	     -8.83222576	    -40.08356594	     13.88292079	     11.13969078	      5.65617452	    -32.65755889	     -7.42127167	     23.53162802	     19.55499320	    -13.89800192	    -10.79819924	      8.72018797	     22.92542720	     35.11875968	    -14.38023955	    -18.42325411	      4.85660250	      0.00095405	     -0.03125242	     -0.00488831	      0.01470876	     -0.01885676	     -0.00188017	      0.00154947	     -0.06878004	     -0.00659193	      0.01219133	     -0.18239667	     -0.00003949	     -0.00974522	      0.00331872	     -0.00060964	     -0.00087614	     -0.00035046	     -0.00175228	     -0.00112146	     -0.00336438	     -0.00189246	     -0.00000833	     -0.00008133	     -0.00009760	      0.00245484	      0.00861274	      0.00599147	     -0.00803024	      0.01938907	     -0.01839049	      0.00245484	      0.00861274	      0.00599147	      0.00054090	      0.01797441	     -0.00944489	      0.00389943	      0.00478944	      0.01584783	      0.00000000	      0.00749956	      0.00000000	     -0.00703166	     -0.03249541	     -0.00618212	      0.02081859	     -0.00092093	     -0.00992217	     -0.00087376	      0.01464582	     -0.00599147	      0.00241323	      0.02113658	     -0.01747512	     -0.00586665	      0.01269027	     -0.00536736	     -0.01223259	      0.02679519	     -0.02999896	     -0.02296731	      0.01418814	     -0.00719809	     -0.01522832	      0.03095594	     -0.03748830
